<svg width="101" height="101" viewBox="0 0 101 101" fill="none" xmlns="http://www.w3.org/2000/svg">
<path opacity="0.5" d="M13.375 33.8654C13.375 33.8654 25.6132 46.3333 44.3633 46.3333C57.125 46.3333 63.8987 38.9453 69.625 36.9822C80.3871 33.2928 88.375 33.8654 88.375 33.8654" stroke="#8C61F1" stroke-width="6" stroke-linecap="round"/>
<path opacity="0.5" d="M13.3745 58.8654C13.3745 58.8654 22.0782 58.2929 33.8046 61.9824C40.0441 63.9454 47.4247 71.3333 61.3301 71.3333C73.8793 71.3333 83.7513 66.6291 89.5001 62.9999" stroke="#8C61F1" stroke-width="6" stroke-linecap="round"/>
<path d="M92.5418 50.4999C92.5418 73.5116 73.8868 92.1666 50.8752 92.1666C27.8633 92.1666 9.2085 73.5116 9.2085 50.4999C9.2085 27.488 27.8633 8.83325 50.8752 8.83325C73.8868 8.83325 92.5418 27.488 92.5418 50.4999Z" stroke="#8C61F1" stroke-width="6"/>
</svg>
